<svg width="48" height="48" viewBox="0 0 48 48" fill="none" xmlns="http://www.w3.org/2000/svg">
<g clip-path="url(#clip0_1_12443)">
<path fill-rule="evenodd" clip-rule="evenodd" d="M31.3229 4.47705C37.6109 4.47705 41.8349 8.78305 41.8349 15.1911V33.5831C41.8349 40.0471 37.7409 44.251 31.4049 44.291L16.0189 44.2971C9.73088 44.2971 5.50488 39.9911 5.50488 33.5831V15.1911C5.50488 8.72505 9.59888 4.52305 15.9349 4.48505L31.3209 4.47705H31.3229ZM31.3229 7.47705L15.9449 7.48505C11.2889 7.51305 8.50488 10.3931 8.50488 15.1911V33.5831C8.50488 38.4131 11.3149 41.2971 16.0169 41.2971L31.3949 41.291C36.0509 41.2631 38.8349 38.3791 38.8349 33.5831V15.1911C38.8349 10.3611 36.0269 7.47705 31.3229 7.47705Z" fill="#2563EB"/>
<path d="M32.4367 32.9244C32.4367 32.0964 31.7647 31.4244 30.9367 31.4244H16.4967C15.6687 31.4244 14.9967 32.0964 14.9967 32.9244C14.9967 33.7524 15.6687 34.4244 16.4967 34.4244H30.9367C31.7647 34.4244 32.4367 33.7524 32.4367 32.9244Z" fill="#2563EB" fill-opacity="0.47"/>
<path d="M32.4367 24.5514C32.4367 23.7234 31.7647 23.0514 30.9367 23.0514H16.4967C15.6687 23.0514 14.9967 23.7234 14.9967 24.5514C14.9967 25.3794 15.6687 26.0514 16.4967 26.0514H30.9367C31.7647 26.0514 32.4367 25.3794 32.4367 24.5514Z" fill="#2563EB" fill-opacity="0.47"/>
<path d="M23.5061 16.1978C23.5061 15.3698 22.8341 14.6978 22.0061 14.6978H16.4961C15.6681 14.6978 14.9961 15.3698 14.9961 16.1978C14.9961 17.0258 15.6681 17.6978 16.4961 17.6978H22.0061C22.8341 17.6978 23.5061 17.0258 23.5061 16.1978Z" fill="#2563EB" fill-opacity="0.47"/>
</g>
<defs>
<clipPath id="clip0_1_12443">
<rect width="48" height="48" fill="white"/>
</clipPath>
</defs>
</svg>
