<svg width="18" height="19" viewBox="0 0 21 22" fill="none" xmlns="http://www.w3.org/2000/svg">
<path d="M1.17948 17.4036C0.303914 13.4024 0.54065 9.84754 0.741759 8.51213C0.885379 7.55847 5.96014 3.65906 8.84976 1.50761C10.0194 0.636764 11.6099 0.632826 12.7833 1.49863C15.6972 3.64877 20.8216 7.55915 20.8847 8.51213C20.8867 8.54219 20.8888 8.57338 20.891 8.60568C20.9842 10.0054 21.2165 13.4927 20.4466 17.4036C20.009 19.6265 18.7118 20.6299 16.0677 20.9602C15.8791 20.9837 15.691 21.006 15.5034 21.0271C15.2527 21.0553 15.0347 20.8577 15.0347 20.6049V14.5787C15.0347 13.1642 13.8905 12.0175 12.4791 12.0175H9.07173C7.66034 12.0175 6.51618 13.1642 6.51618 14.5787L6.51618 20.5977C6.51618 20.851 6.29731 21.0488 6.04623 21.0196C5.8838 21.0008 5.72117 20.981 5.55832 20.9602C2.91511 20.623 1.66242 19.6105 1.17948 17.4036Z" fill="#212135"/>
<path d="M8.21988 20.8142C8.21988 21.0395 8.39457 21.2263 8.61904 21.2383C10.0535 21.3151 11.4841 21.3156 12.9312 21.2398C13.1559 21.2281 13.331 21.0412 13.331 20.8157L13.331 14.5787C13.331 14.1072 12.9496 13.7249 12.4791 13.7249H9.07173C8.60127 13.7249 8.21988 14.1072 8.21988 14.5787L8.21988 20.8142Z" fill="#212135"/>
</svg>
