<svg width="18" height="18" viewBox="0 0 22 22" fill="none" xmlns="http://www.w3.org/2000/svg">
<path d="M15.4428 5.53705C15.2299 3.26545 13.7391 1.70372 11.1836 1.70372C8.62802 1.70372 7.13728 3.26545 6.92432 5.53705" stroke="#212135" stroke-width="1.7037" stroke-linecap="round" stroke-linejoin="round"/>
<path d="M19.7757 8.3506C19.3309 7.52885 18.6438 6.98107 17.5285 6.60735C16.1392 6.14178 14.1255 5.96299 11.1836 5.96299C8.24176 5.96299 6.2281 6.14178 4.83878 6.60735C3.72354 6.98107 3.0364 7.52885 2.59163 8.3506C2.69209 8.45226 2.81153 8.57042 2.94855 8.7014C3.42909 9.16077 4.12099 9.77328 4.96401 10.3844C6.67309 11.6234 8.89508 12.7778 11.1836 12.7778C13.4722 12.7778 15.6942 11.6234 17.4033 10.3844C18.2463 9.77328 18.9382 9.16077 19.4187 8.7014C19.5558 8.57042 19.6752 8.45226 19.7757 8.3506ZM2.01646 10.1635C1.87589 10.9854 1.81328 11.9838 1.81328 13.2037C1.81328 16.5383 2.28749 18.1652 3.44453 19.0812C4.04305 19.5551 4.90399 19.9051 6.18269 20.1301C7.46184 20.3551 9.09421 20.4445 11.1836 20.4445C13.2731 20.4445 14.9055 20.3551 16.1846 20.1301C17.4633 19.9051 18.3242 19.5551 18.9228 19.0812C20.0798 18.1652 20.554 16.5383 20.554 13.2037C20.554 11.9838 20.4914 10.9854 20.3508 10.1635C19.8493 10.6277 19.1875 11.1953 18.4033 11.7638C16.5872 13.0804 14.0062 14.4815 11.1836 14.4815C8.3611 14.4815 5.78014 13.0804 3.96404 11.7638C3.17982 11.1953 2.51802 10.6277 2.01646 10.1635Z" stroke="#212135" stroke-width="1.7037" stroke-linecap="round" stroke-linejoin="round"/>
</svg>
