<svg width="18" height="18" viewBox="0 0 22 22" fill="none" xmlns="http://www.w3.org/2000/svg">
<path d="M1.51738 11.0741C1.51738 13.1592 1.63021 14.7765 1.91053 16.0379C2.1887 17.2895 2.62034 18.1377 3.22224 18.7396C3.82414 19.3415 4.67234 19.7732 5.92399 20.0513C7.18531 20.3316 8.80269 20.4445 10.8877 20.4445C12.9728 20.4445 14.5902 20.3316 15.8515 20.0513C17.1032 19.7732 17.9514 19.3415 18.5533 18.7396C19.1552 18.1377 19.5868 17.2895 19.865 16.0379C20.1453 14.7765 20.2581 13.1592 20.2581 11.0741C20.2581 8.98905 20.1453 7.37167 19.865 6.11035C19.5868 4.8587 19.1552 4.01049 18.5533 3.40859C17.9514 2.80669 17.1032 2.37505 15.8515 2.09689C14.5902 1.81657 12.9728 1.70373 10.8877 1.70373C8.80269 1.70373 7.18531 1.81657 5.92399 2.09689C4.67234 2.37505 3.82414 2.80669 3.22224 3.40859C2.62034 4.01049 2.1887 4.8587 1.91053 6.11035C1.63021 7.37167 1.51738 8.98905 1.51738 11.0741Z" stroke="#212135" stroke-width="1.7037" stroke-linecap="round" stroke-linejoin="round"/>
<path d="M9.18408 6.81482H12.5915" stroke="#212135" stroke-width="1.7037" stroke-linecap="round" stroke-linejoin="round"/>
<path d="M6.62842 11.0741H15.1469" stroke="#212135" stroke-width="1.7037" stroke-linecap="round" stroke-linejoin="round"/>
<path d="M9.18408 15.3334L12.5915 15.3334" stroke="#212135" stroke-width="1.7037" stroke-linecap="round" stroke-linejoin="round"/>
</svg>
